G75*
%MOIN*%
%OFA0B0*%
%FSLAX24Y24*%
%IPPOS*%
%LPD*%
%AMOC8*
5,1,8,0,0,1.08239X$1,22.5*
%
%ADD10R,0.0551X0.0472*%
%ADD11C,0.0740*%
%ADD12R,0.0315X0.0354*%
%ADD13R,0.0472X0.0315*%
%ADD14R,0.0472X0.0217*%
%ADD15C,0.0560*%
%ADD16C,0.0400*%
%ADD17C,0.0160*%
D10*
X005987Y001089D03*
X005987Y002271D03*
D11*
X001487Y002180D03*
X001487Y001180D03*
X001487Y003180D03*
X001487Y004180D03*
D12*
X004113Y003286D03*
X004861Y003286D03*
X004487Y004113D03*
D13*
X005987Y004034D03*
X005987Y003326D03*
X002987Y002034D03*
X002987Y001326D03*
D14*
X003975Y001306D03*
X003975Y002054D03*
X004999Y002054D03*
X004999Y001680D03*
X004999Y001306D03*
D15*
X004601Y000680D02*
X005577Y000680D01*
X005987Y001089D01*
X004601Y000680D02*
X003975Y001306D01*
X003006Y001306D01*
X002987Y001326D01*
X002841Y001180D01*
X001487Y001180D01*
X001487Y002180D02*
X002841Y002180D01*
X002987Y002034D01*
X003006Y002054D01*
X003975Y002054D01*
X005987Y002271D02*
X005987Y003326D01*
X005987Y004034D02*
X005908Y004113D01*
X004487Y004113D01*
D16*
X004113Y003286D02*
X004006Y003180D01*
X001487Y003180D01*
X004113Y003286D02*
X004999Y002400D01*
X004999Y002054D01*
D17*
X000717Y000410D02*
X000717Y004950D01*
X006757Y004950D01*
X006757Y000410D01*
X005986Y000410D01*
X006229Y000653D01*
X006345Y000653D01*
X006462Y000770D01*
X006462Y000983D01*
X006467Y000994D01*
X006467Y001185D01*
X006462Y001196D01*
X006462Y001409D01*
X006345Y001526D01*
X006188Y001526D01*
X006082Y001569D01*
X005891Y001569D01*
X005785Y001526D01*
X005628Y001526D01*
X005511Y001409D01*
X005511Y001293D01*
X005415Y001196D01*
X005415Y001306D01*
X004999Y001306D01*
X005415Y001306D01*
X005415Y001438D01*
X005402Y001484D01*
X005397Y001493D01*
X005402Y001502D01*
X005415Y001548D01*
X005415Y001680D01*
X005141Y001680D01*
X005415Y001680D01*
X005415Y001812D01*
X005408Y001836D01*
X005435Y001863D01*
X005435Y002245D01*
X005399Y002281D01*
X005399Y002480D01*
X005338Y002627D01*
X005035Y002929D01*
X005042Y002929D01*
X005088Y002941D01*
X005129Y002965D01*
X005162Y002999D01*
X005186Y003040D01*
X005198Y003085D01*
X005198Y003286D01*
X004861Y003286D01*
X004861Y003286D01*
X005198Y003286D01*
X005198Y003487D01*
X005186Y003533D01*
X005162Y003574D01*
X005129Y003608D01*
X005088Y003631D01*
X005081Y003633D01*
X005615Y003633D01*
X005580Y003598D01*
X005578Y003594D01*
X005550Y003566D01*
X005550Y003527D01*
X005507Y003421D01*
X005507Y002175D01*
X005511Y002164D01*
X005511Y001951D01*
X005628Y001834D01*
X005785Y001834D01*
X005891Y001791D01*
X006082Y001791D01*
X006188Y001834D01*
X006345Y001834D01*
X006462Y001951D01*
X006462Y002164D01*
X006467Y002175D01*
X006467Y003421D01*
X006423Y003527D01*
X006423Y003566D01*
X006395Y003594D01*
X006394Y003598D01*
X006311Y003680D01*
X006394Y003762D01*
X006395Y003766D01*
X006423Y003794D01*
X006423Y003833D01*
X006467Y003939D01*
X006467Y004130D01*
X006423Y004235D01*
X006423Y004275D01*
X006395Y004302D01*
X006394Y004306D01*
X006315Y004385D01*
X006180Y004520D01*
X006003Y004593D01*
X004391Y004593D01*
X004215Y004520D01*
X004080Y004385D01*
X004007Y004209D01*
X004007Y004018D01*
X004080Y003841D01*
X004215Y003706D01*
X004318Y003663D01*
X004247Y003663D01*
X004192Y003686D01*
X004033Y003686D01*
X003978Y003663D01*
X003872Y003663D01*
X003789Y003580D01*
X001893Y003580D01*
X001810Y003663D01*
X001740Y003692D01*
X001775Y003710D01*
X001845Y003760D01*
X001906Y003822D01*
X001957Y003892D01*
X001996Y003969D01*
X002023Y004051D01*
X002037Y004137D01*
X002037Y004160D01*
X001507Y004160D01*
X001507Y004200D01*
X002037Y004200D01*
X002037Y004223D01*
X002023Y004309D01*
X001996Y004391D01*
X001957Y004468D01*
X001906Y004538D01*
X001845Y004600D01*
X001775Y004650D01*
X001698Y004690D01*
X001615Y004716D01*
X001530Y004730D01*
X001507Y004730D01*
X001507Y004200D01*
X001467Y004200D01*
X001467Y004730D01*
X001443Y004730D01*
X001358Y004716D01*
X001276Y004690D01*
X001198Y004650D01*
X001128Y004600D01*
X001067Y004538D01*
X001016Y004468D01*
X000977Y004391D01*
X000950Y004309D01*
X000937Y004223D01*
X000937Y004200D01*
X001467Y004200D01*
X001467Y004160D01*
X000937Y004160D01*
X000937Y004137D01*
X000950Y004051D01*
X000977Y003969D01*
X001016Y003892D01*
X001067Y003822D01*
X001128Y003760D01*
X001198Y003710D01*
X001233Y003692D01*
X001164Y003663D01*
X001003Y003503D01*
X000917Y003293D01*
X000917Y003067D01*
X001003Y002857D01*
X001164Y002697D01*
X001204Y002680D01*
X001164Y002663D01*
X001003Y002503D01*
X000917Y002293D01*
X000917Y002067D01*
X001003Y001857D01*
X001164Y001697D01*
X001204Y001680D01*
X001164Y001663D01*
X001003Y001503D01*
X000917Y001293D01*
X000917Y001067D01*
X001003Y000857D01*
X001164Y000697D01*
X001373Y000610D01*
X001600Y000610D01*
X001810Y000697D01*
X001813Y000700D01*
X002936Y000700D01*
X003113Y000773D01*
X003166Y000826D01*
X003776Y000826D01*
X004192Y000410D01*
X000717Y000410D01*
X000717Y000497D02*
X004105Y000497D01*
X003946Y000656D02*
X001710Y000656D01*
X001263Y000656D02*
X000717Y000656D01*
X000717Y000814D02*
X001047Y000814D01*
X000956Y000973D02*
X000717Y000973D01*
X000717Y001131D02*
X000917Y001131D01*
X000917Y001290D02*
X000717Y001290D01*
X000717Y001448D02*
X000981Y001448D01*
X001107Y001607D02*
X000717Y001607D01*
X000717Y001765D02*
X001096Y001765D01*
X000976Y001924D02*
X000717Y001924D01*
X000717Y002082D02*
X000917Y002082D01*
X000917Y002241D02*
X000717Y002241D01*
X000717Y002399D02*
X000960Y002399D01*
X001058Y002558D02*
X000717Y002558D01*
X000717Y002716D02*
X001145Y002716D01*
X000996Y002875D02*
X000717Y002875D01*
X000717Y003033D02*
X000931Y003033D01*
X000917Y003192D02*
X000717Y003192D01*
X000717Y003350D02*
X000940Y003350D01*
X001009Y003509D02*
X000717Y003509D01*
X000717Y003667D02*
X001173Y003667D01*
X001064Y003826D02*
X000717Y003826D01*
X000717Y003984D02*
X000972Y003984D01*
X000937Y004143D02*
X000717Y004143D01*
X000717Y004301D02*
X000949Y004301D01*
X001012Y004460D02*
X000717Y004460D01*
X000717Y004618D02*
X001154Y004618D01*
X001467Y004618D02*
X001507Y004618D01*
X001507Y004460D02*
X001467Y004460D01*
X001467Y004301D02*
X001507Y004301D01*
X001820Y004618D02*
X006757Y004618D01*
X006757Y004460D02*
X006240Y004460D01*
X006397Y004301D02*
X006757Y004301D01*
X006757Y004143D02*
X006461Y004143D01*
X006467Y003984D02*
X006757Y003984D01*
X006757Y003826D02*
X006423Y003826D01*
X006324Y003667D02*
X006757Y003667D01*
X006757Y003509D02*
X006430Y003509D01*
X006467Y003350D02*
X006757Y003350D01*
X006757Y003192D02*
X006467Y003192D01*
X006467Y003033D02*
X006757Y003033D01*
X006757Y002875D02*
X006467Y002875D01*
X006467Y002716D02*
X006757Y002716D01*
X006757Y002558D02*
X006467Y002558D01*
X006467Y002399D02*
X006757Y002399D01*
X006757Y002241D02*
X006467Y002241D01*
X006462Y002082D02*
X006757Y002082D01*
X006757Y001924D02*
X006434Y001924D01*
X006757Y001765D02*
X005415Y001765D01*
X005415Y001607D02*
X006757Y001607D01*
X006757Y001448D02*
X006423Y001448D01*
X006462Y001290D02*
X006757Y001290D01*
X006757Y001131D02*
X006467Y001131D01*
X006462Y000973D02*
X006757Y000973D01*
X006757Y000814D02*
X006462Y000814D01*
X006347Y000656D02*
X006757Y000656D01*
X006757Y000497D02*
X006073Y000497D01*
X005508Y001290D02*
X005415Y001290D01*
X005412Y001448D02*
X005551Y001448D01*
X005141Y001680D02*
X005141Y001680D01*
X004999Y001654D02*
X004999Y001392D01*
X004999Y001306D01*
X004999Y001306D01*
X004999Y001306D01*
X004999Y001654D01*
X004999Y001654D01*
X004999Y001607D02*
X004999Y001607D01*
X004999Y001448D02*
X004999Y001448D01*
X004856Y001680D02*
X004582Y001680D01*
X004856Y001680D01*
X004856Y001680D01*
X004582Y001812D02*
X004589Y001836D01*
X004562Y001863D01*
X004562Y002245D01*
X004575Y002258D01*
X004053Y002780D01*
X001893Y002780D01*
X001810Y002697D01*
X001769Y002680D01*
X001810Y002663D01*
X001813Y002660D01*
X002936Y002660D01*
X003113Y002587D01*
X003166Y002534D01*
X004070Y002534D01*
X004247Y002461D01*
X004382Y002326D01*
X004455Y002149D01*
X004455Y001959D01*
X004382Y001782D01*
X004280Y001680D01*
X004582Y001377D01*
X004582Y001438D01*
X004595Y001484D01*
X004600Y001493D01*
X004595Y001502D01*
X004582Y001548D01*
X004582Y001680D01*
X004582Y001812D01*
X004582Y001765D02*
X004365Y001765D01*
X004353Y001607D02*
X004582Y001607D01*
X004585Y001448D02*
X004512Y001448D01*
X004562Y001924D02*
X004440Y001924D01*
X004455Y002082D02*
X004562Y002082D01*
X004562Y002241D02*
X004417Y002241D01*
X004434Y002399D02*
X004309Y002399D01*
X004276Y002558D02*
X003142Y002558D01*
X004117Y002716D02*
X001829Y002716D01*
X001800Y003667D02*
X003987Y003667D01*
X004095Y003826D02*
X001909Y003826D01*
X002001Y003984D02*
X004021Y003984D01*
X004007Y004143D02*
X002037Y004143D01*
X002024Y004301D02*
X004045Y004301D01*
X004154Y004460D02*
X001962Y004460D01*
X000717Y004777D02*
X006757Y004777D01*
X006757Y004935D02*
X000717Y004935D01*
X004239Y003667D02*
X004309Y003667D01*
X005192Y003509D02*
X005543Y003509D01*
X005507Y003350D02*
X005198Y003350D01*
X005198Y003192D02*
X005507Y003192D01*
X005507Y003033D02*
X005182Y003033D01*
X005090Y002875D02*
X005507Y002875D01*
X005507Y002716D02*
X005249Y002716D01*
X005366Y002558D02*
X005507Y002558D01*
X005507Y002399D02*
X005399Y002399D01*
X005435Y002241D02*
X005507Y002241D01*
X005511Y002082D02*
X005435Y002082D01*
X005435Y001924D02*
X005539Y001924D01*
X003788Y000814D02*
X003154Y000814D01*
M02*
