G75*
%MOIN*%
%OFA0B0*%
%FSLAX24Y24*%
%IPPOS*%
%LPD*%
%AMOC8*
5,1,8,0,0,1.08239X$1,22.5*
%
%ADD10C,0.0000*%
%ADD11C,0.0080*%
%ADD12C,0.0060*%
D10*
X000487Y000180D02*
X000487Y005180D01*
X006987Y005180D01*
X006987Y000180D01*
X000487Y000180D01*
D11*
X000987Y000930D02*
X001237Y000680D01*
X001737Y000680D01*
X001987Y000930D01*
X001987Y001430D01*
X001737Y001680D01*
X001987Y001930D01*
X001987Y002430D01*
X001737Y002680D01*
X001987Y002930D01*
X001987Y003430D01*
X001737Y003680D01*
X001987Y003930D01*
X001987Y004430D01*
X001737Y004680D01*
X001237Y004680D01*
X000987Y004430D01*
X000987Y003930D01*
X001237Y003680D01*
X000987Y003430D01*
X000987Y002930D01*
X001237Y002680D01*
X000987Y002430D01*
X000987Y001930D01*
X001237Y001680D01*
X000987Y001430D01*
X000987Y000930D01*
X004168Y001574D02*
X004168Y001786D01*
X004318Y002240D02*
X004656Y002240D01*
X005593Y002074D02*
X005593Y002625D01*
X006380Y002625D01*
X006380Y002074D01*
X006262Y001798D02*
X005987Y001798D01*
X006223Y001562D01*
X005750Y001562D01*
X005987Y001798D01*
X005711Y001798D01*
X005593Y001286D02*
X005593Y000735D01*
X006380Y000735D01*
X006380Y001286D01*
X004656Y001120D02*
X004318Y001120D01*
X003935Y003641D02*
X003935Y003956D01*
X004172Y003956D01*
X004802Y003956D02*
X005038Y003956D01*
X005038Y003641D01*
D12*
X005750Y003562D02*
X005750Y003798D01*
X006223Y003798D02*
X006223Y003562D01*
X003223Y001798D02*
X003223Y001562D01*
X002750Y001562D02*
X002750Y001798D01*
M02*
