G75*
%MOIN*%
%OFA0B0*%
%FSLAX24Y24*%
%IPPOS*%
%LPD*%
%AMOC8*
5,1,8,0,0,1.08239X$1,22.5*
%
%ADD10C,0.0000*%
%ADD11C,0.0060*%
D10*
X000487Y000180D02*
X000487Y005180D01*
X006987Y005180D01*
X006987Y000180D01*
X000487Y000180D01*
D11*
X002174Y001180D02*
X002601Y001180D01*
X002819Y001074D02*
X002819Y001501D01*
X003032Y001860D02*
X002819Y002074D01*
X002819Y002501D01*
X002601Y002180D02*
X002174Y002180D01*
X003032Y001860D02*
X003246Y002074D01*
X003246Y002501D01*
X003139Y002860D02*
X002925Y002860D01*
X002819Y002967D01*
X002819Y003501D01*
X002601Y003501D02*
X002174Y003501D01*
X002388Y003501D02*
X002388Y002860D01*
X003139Y002860D02*
X003246Y002967D01*
X003246Y003501D01*
X003463Y003394D02*
X003570Y003501D01*
X003784Y003501D01*
X003890Y003394D01*
X003890Y002967D01*
X003784Y002860D01*
X003570Y002860D01*
X003463Y002967D01*
X003463Y003394D01*
X003570Y003860D02*
X003463Y003967D01*
X003463Y004180D01*
X003677Y004180D01*
X003890Y003967D02*
X003784Y003860D01*
X003570Y003860D01*
X003246Y003860D02*
X003246Y004501D01*
X002819Y003860D01*
X002819Y004501D01*
X002601Y004501D02*
X002281Y004501D01*
X002174Y004394D01*
X002174Y003967D01*
X002281Y003860D01*
X002601Y003860D01*
X002601Y004501D01*
X003463Y004394D02*
X003570Y004501D01*
X003784Y004501D01*
X003890Y004394D01*
X003890Y003967D01*
X003246Y001501D02*
X003246Y001074D01*
X003032Y000860D01*
X002819Y001074D01*
X002388Y000967D02*
X002388Y001394D01*
M02*
